solid Mesh
  facet normal -0.7578333 -0.03725401 0.6513838
    outer loop
      vertex -378.574 -211.715 123.3033
      vertex -90.92838 366.5388 491.0277
      vertex -400.4851 460.7292 136.2699
    endloop
  endfacet
  facet normal 0.6775627 0.6461295 0.3513198
    outer loop
      vertex 363.1043 321.5457 403.5995
      vertex 761.4017 50.49559 133.9364
      vertex 407.7177 521.6982 -50.55317
    endloop
  endfacet
  facet normal 0.5843874 0.053145 0.8097327
    outer loop
      vertex 761.4017 50.49559 133.9364
      vertex 363.1043 321.5457 403.5995
      vertex 303.7735 26.11444 465.8088
    endloop
  endfacet
  facet normal -0.1920684 0.1244567 -0.9734579
    outer loop
      vertex 56.53655 -176.5018 -379.3388
      vertex 232.4681 457.6313 -332.9771
      vertex 328.1858 199.7399 -384.8341
    endloop
  endfacet
  facet normal 0.5651444 -0.3329185 0.7548357
    outer loop
      vertex 761.4017 50.49559 133.9364
      vertex 303.7735 26.11444 465.8088
      vertex 577.3806 -382.1325 80.90312
    endloop
  endfacet
  facet normal 0.2301146 -0.5814919 0.7803297
    outer loop
      vertex 577.3806 -382.1325 80.90312
      vertex 303.7735 26.11444 465.8088
      vertex -91.52058 -262.6523 367.1934
    endloop
  endfacet
  facet normal 0.05567927 -0.8685005 0.4925512
    outer loop
      vertex 577.3806 -382.1325 80.90312
      vertex -91.52058 -262.6523 367.1934
      vertex 24.54903 -519.3916 -98.6281
    endloop
  endfacet
  facet normal -0.4411856 -0.8278829 0.3463599
    outer loop
      vertex 24.54903 -519.3916 -98.6281
      vertex -91.52058 -262.6523 367.1934
      vertex -378.574 -211.715 123.3033
    endloop
  endfacet
  facet normal -0.1032272 -0.1919853 0.9759538
    outer loop
      vertex -91.52058 -262.6523 367.1934
      vertex 303.7735 26.11444 465.8088
      vertex -90.92838 366.5388 491.0277
    endloop
  endfacet
  facet normal -0.655462 -0.1452485 0.7411293
    outer loop
      vertex -378.574 -211.715 123.3033
      vertex -91.52058 -262.6523 367.1934
      vertex -90.92838 366.5388 491.0277
    endloop
  endfacet
  facet normal -0.5016257 0.6207532 0.6025257
    outer loop
      vertex -400.4851 460.7292 136.2699
      vertex -90.92838 366.5388 491.0277
      vertex -172.3802 638.7996 142.7187
    endloop
  endfacet
  facet normal -0.6031787 0.7788831 -0.1718036
    outer loop
      vertex -400.4851 460.7292 136.2699
      vertex -172.3802 638.7996 142.7187
      vertex -176.7799 550.2474 -243.2918
    endloop
  endfacet
  facet normal 0.168626 0.960304 -0.2222192
    outer loop
      vertex -176.7799 550.2474 -243.2918
      vertex -172.3802 638.7996 142.7187
      vertex 232.4681 457.6313 -332.9771
    endloop
  endfacet
  facet normal 0.1897937 0.7945898 0.5767196
    outer loop
      vertex -172.3802 638.7996 142.7187
      vertex -90.92838 366.5388 491.0277
      vertex 363.1043 321.5457 403.5995
    endloop
  endfacet
  facet normal -0.06437428 0.5326962 -0.8438547
    outer loop
      vertex -176.7799 550.2474 -243.2918
      vertex 232.4681 457.6313 -332.9771
      vertex -297.889 300.7973 -391.5221
    endloop
  endfacet
  facet normal 0.3095046 0.8585485 0.4087803
    outer loop
      vertex -172.3802 638.7996 142.7187
      vertex 363.1043 321.5457 403.5995
      vertex 407.7177 521.6982 -50.55317
    endloop
  endfacet
  facet normal 0.2020932 0.1627719 0.9657451
    outer loop
      vertex 303.7735 26.11444 465.8088
      vertex 363.1043 321.5457 403.5995
      vertex -90.92838 366.5388 491.0277
    endloop
  endfacet
  facet normal 0.09995839 0.9551617 -0.2787014
    outer loop
      vertex -172.3802 638.7996 142.7187
      vertex 407.7177 521.6982 -50.55317
      vertex 232.4681 457.6313 -332.9771
    endloop
  endfacet
  facet normal 0.09615082 0.04601817 -0.9943024
    outer loop
      vertex 56.53655 -176.5018 -379.3388
      vertex -297.889 300.7973 -391.5221
      vertex 232.4681 457.6313 -332.9771
    endloop
  endfacet
  facet normal -0.09738656 -0.01829922 -0.9950784
    outer loop
      vertex -514.2482 395.4076 -460.7784
      vertex -614.1164 -292.8633 -438.3473
      vertex -1033.045 405.7473 -410.1948
    endloop
  endfacet
  facet normal 0.2756931 -0.07124438 -0.9586018
    outer loop
      vertex -614.1164 -292.8633 -438.3473
      vertex -514.2482 395.4076 -460.7784
      vertex -297.889 300.7973 -391.5221
    endloop
  endfacet
  facet normal 0.08154439 0.03512733 -0.9960505
    outer loop
      vertex -297.889 300.7973 -391.5221
      vertex 56.53655 -176.5018 -379.3388
      vertex -614.1164 -292.8633 -438.3473
    endloop
  endfacet
  facet normal 0.6223828 0.1616508 0.7658386
    outer loop
      vertex -677.7204 -33.09789 465.8093
      vertex -400.4851 460.7292 136.2699
      vertex -757.5291 568.9018 403.6002
    endloop
  endfacet
  facet normal 0.7562161 0.01202589 0.6542114
    outer loop
      vertex -378.574 -211.715 123.3033
      vertex -400.4851 460.7292 136.2699
      vertex -677.7204 -33.09789 465.8093
    endloop
  endfacet
  facet normal 0.01833154 0.105177 0.9942846
    outer loop
      vertex -677.7204 -33.09789 465.8093
      vertex -757.5291 568.9018 403.6002
      vertex -1181.859 331.0981 436.5788
    endloop
  endfacet
  facet normal -0.349429 0.8423812 0.4102357
    outer loop
      vertex -1346.513 456.8958 38.01672
      vertex -1181.859 331.0981 436.5788
      vertex -1056.227 671.5877 -155.5746
    endloop
  endfacet
  facet normal -0.7023759 0.459462 -0.5436568
    outer loop
      vertex -1033.045 405.7473 -410.1948
      vertex -1346.513 456.8958 38.01672
      vertex -1056.227 671.5877 -155.5746
    endloop
  endfacet
  facet normal -0.4295832 0.8192217 0.3799133
    outer loop
      vertex -1056.227 671.5877 -155.5746
      vertex -1181.859 331.0981 436.5788
      vertex -757.5291 568.9018 403.6002
    endloop
  endfacet
  facet normal 0.07346398 0.9871321 0.1420327
    outer loop
      vertex -684.8648 650.4199 -200.5378
      vertex -1056.227 671.5877 -155.5746
      vertex -757.5291 568.9018 403.6002
    endloop
  endfacet
  facet normal -0.04833595 0.688692 -0.723441
    outer loop
      vertex -1033.045 405.7473 -410.1948
      vertex -1056.227 671.5877 -155.5746
      vertex -684.8648 650.4199 -200.5378
    endloop
  endfacet
  facet normal -0.05609819 0.6944879 -0.7173141
    outer loop
      vertex -684.8648 650.4199 -200.5378
      vertex -514.2482 395.4076 -460.7784
      vertex -1033.045 405.7473 -410.1948
    endloop
  endfacet
  facet normal 0.3999016 0.9007232 0.1696365
    outer loop
      vertex -684.8648 650.4199 -200.5378
      vertex -757.5291 568.9018 403.6002
      vertex -400.4851 460.7292 136.2699
    endloop
  endfacet
  facet normal 0.08985464 0.7401695 -0.6663896
    outer loop
      vertex -514.2482 395.4076 -460.7784
      vertex -684.8648 650.4199 -200.5378
      vertex -176.7799 550.2474 -243.2918
    endloop
  endfacet
  facet normal 0.2093645 0.9169522 0.3396545
    outer loop
      vertex -400.4851 460.7292 136.2699
      vertex -176.7799 550.2474 -243.2918
      vertex -684.8648 650.4199 -200.5378
    endloop
  endfacet
  facet normal 0.4102289 0.3104023 -0.8575329
    outer loop
      vertex -176.7799 550.2474 -243.2918
      vertex -297.889 300.7973 -391.5221
      vertex -514.2482 395.4076 -460.7784
    endloop
  endfacet
  facet normal 0.09865957 -0.9135289 0.3946279
    outer loop
      vertex 24.54903 -519.3916 -98.6281
      vertex 421.4841 -592.8233 -367.8524
      vertex 577.3806 -382.1325 80.90312
    endloop
  endfacet
  facet normal -0.5478271 -0.4987566 -0.67166
    outer loop
      vertex 421.4841 -592.8233 -367.8524
      vertex 24.54903 -519.3916 -98.6281
      vertex 56.53655 -176.5018 -379.3388
    endloop
  endfacet
  facet normal -0.01806316 -0.0433938 -0.9988948
    outer loop
      vertex 421.4841 -592.8233 -367.8524
      vertex 56.53655 -176.5018 -379.3388
      vertex 722.5062 -193.3973 -390.6477
    endloop
  endfacet
  facet normal -0.01703695 -0.00230282 -0.9998522
    outer loop
      vertex 722.5062 -193.3973 -390.6477
      vertex 56.53655 -176.5018 -379.3388
      vertex 328.1858 199.7399 -384.8341
    endloop
  endfacet
  facet normal -0.08198148 -0.06752426 -0.9943437
    outer loop
      vertex 722.5062 -193.3973 -390.6477
      vertex 328.1858 199.7399 -384.8341
      vertex 844.768 306.4839 -434.674
    endloop
  endfacet
  facet normal -0.3131043 -0.5833672 0.7494321
    outer loop
      vertex 1012.602 -246.6011 368.2329
      vertex 577.3806 -382.1325 80.90312
      vertex 900.4623 -735.2464 -58.98525
    endloop
  endfacet
  facet normal -0.5763953 0.146627 0.8039085
    outer loop
      vertex 577.3806 -382.1325 80.90312
      vertex 1012.602 -246.6011 368.2329
      vertex 761.4017 50.49559 133.9364
    endloop
  endfacet
  facet normal -0.1170679 0.08061946 -0.9898462
    outer loop
      vertex 1076.82 -447.2417 -453.2266
      vertex 722.5062 -193.3973 -390.6477
      vertex 1284.469 140.5661 -429.9102
    endloop
  endfacet
  facet normal 0.228242 0.7145233 0.6613336
    outer loop
      vertex 761.4017 50.49559 133.9364
      vertex 1012.602 -246.6011 368.2329
      vertex 1279.987 74.52301 -70.99952
    endloop
  endfacet
  facet normal 0.9211624 0.380543 0.08152791
    outer loop
      vertex 1279.987 74.52301 -70.99952
      vertex 1445.218 -337.7685 -13.47481
      vertex 1284.469 140.5661 -429.9102
    endloop
  endfacet
  facet normal 0.7719898 -0.2495242 -0.5846105
    outer loop
      vertex 1076.82 -447.2417 -453.2266
      vertex 1284.469 140.5661 -429.9102
      vertex 1445.218 -337.7685 -13.47481
    endloop
  endfacet
  facet normal 0.6592464 0.3565677 0.6620073
    outer loop
      vertex 1279.987 74.52301 -70.99952
      vertex 1012.602 -246.6011 368.2329
      vertex 1445.218 -337.7685 -13.47481
    endloop
  endfacet
  facet normal 0.7512013 -0.3906464 -0.5320638
    outer loop
      vertex 1076.82 -447.2417 -453.2266
      vertex 1445.218 -337.7685 -13.47481
      vertex 1199.74 -694.7261 -97.9737
    endloop
  endfacet
  facet normal 0.1660815 -0.3338598 0.9278764
    outer loop
      vertex 1199.74 -694.7261 -97.9737
      vertex 1445.218 -337.7685 -13.47481
      vertex 900.4623 -735.2464 -58.98525
    endloop
  endfacet
  facet normal 0.4212783 -0.6498138 0.6326663
    outer loop
      vertex 900.4623 -735.2464 -58.98525
      vertex 1445.218 -337.7685 -13.47481
      vertex 1012.602 -246.6011 368.2329
    endloop
  endfacet
  facet normal 0.03478314 -0.8143426 -0.5793412
    outer loop
      vertex 1076.82 -447.2417 -453.2266
      vertex 1199.74 -694.7261 -97.9737
      vertex 900.4623 -735.2464 -58.98525
    endloop
  endfacet
  facet normal 0.1113106 -0.8255262 -0.5532779
    outer loop
      vertex 1076.82 -447.2417 -453.2266
      vertex 900.4623 -735.2464 -58.98525
      vertex 421.4841 -592.8233 -367.8524
    endloop
  endfacet
  facet normal -0.5282857 -0.6831163 0.5042483
    outer loop
      vertex 900.4623 -735.2464 -58.98525
      vertex 577.3806 -382.1325 80.90312
      vertex 421.4841 -592.8233 -367.8524
    endloop
  endfacet
  facet normal -0.1396895 0.0488335 -0.9889905
    outer loop
      vertex 722.5062 -193.3973 -390.6477
      vertex 1076.82 -447.2417 -453.2266
      vertex 421.4841 -592.8233 -367.8524
    endloop
  endfacet
  facet normal 0.3581414 0.1415941 0.9228683
    outer loop
      vertex 761.4017 50.49559 133.9364
      vertex 1279.987 74.52301 -70.99952
      vertex 789.661 505.0776 53.22402
    endloop
  endfacet
  facet normal -0.2502325 0.1843164 0.9504794
    outer loop
      vertex 407.7177 521.6982 -50.55317
      vertex 761.4017 50.49559 133.9364
      vertex 789.661 505.0776 53.22402
    endloop
  endfacet
  facet normal -0.1257091 0.1505188 -0.9805821
    outer loop
      vertex 844.768 306.4839 -434.674
      vertex 328.1858 199.7399 -384.8341
      vertex 232.4681 457.6313 -332.9771
    endloop
  endfacet
  facet normal 0.2014487 0.5098493 -0.8363445
    outer loop
      vertex 1082.775 683.9717 -147.2231
      vertex 1284.469 140.5661 -429.9102
      vertex 844.768 306.4839 -434.674
    endloop
  endfacet
  facet normal 0.9465182 0.3150131 0.06978641
    outer loop
      vertex 1284.469 140.5661 -429.9102
      vertex 1082.775 683.9717 -147.2231
      vertex 1279.987 74.52301 -70.99952
    endloop
  endfacet
  facet normal 0.4380942 0.2497654 0.8635339
    outer loop
      vertex 789.661 505.0776 53.22402
      vertex 1279.987 74.52301 -70.99952
      vertex 1082.775 683.9717 -147.2231
    endloop
  endfacet
  facet normal -0.02043243 -0.08275565 -0.9963604
    outer loop
      vertex 722.5062 -193.3973 -390.6477
      vertex 844.768 306.4839 -434.674
      vertex 1284.469 140.5661 -429.9102
    endloop
  endfacet
  facet normal -0.6478254 -0.6330808 -0.4237108
    outer loop
      vertex -381.0631 -659.9883 -246.1362
      vertex -609.8863 -577.6152 -19.35733
      vertex -614.1164 -292.8633 -438.3473
    endloop
  endfacet
  facet normal 0.4486536 -0.5908143 -0.6705582
    outer loop
      vertex 24.54903 -519.3916 -98.6281
      vertex -381.0631 -659.9883 -246.1362
      vertex 56.53655 -176.5018 -379.3388
    endloop
  endfacet
  facet normal 0.1378242 -0.8781779 0.4580481
    outer loop
      vertex -381.0631 -659.9883 -246.1362
      vertex 24.54903 -519.3916 -98.6281
      vertex -609.8863 -577.6152 -19.35733
    endloop
  endfacet
  facet normal 0.150999 -0.440496 0.8849647
    outer loop
      vertex 24.54903 -519.3916 -98.6281
      vertex -378.574 -211.715 123.3033
      vertex -609.8863 -577.6152 -19.35733
    endloop
  endfacet
  facet normal 0.1468387 -0.3840424 -0.9115645
    outer loop
      vertex -614.1164 -292.8633 -438.3473
      vertex 56.53655 -176.5018 -379.3388
      vertex -381.0631 -659.9883 -246.1362
    endloop
  endfacet
  facet normal 0.4578084 -0.5589655 0.6913531
    outer loop
      vertex -378.574 -211.715 123.3033
      vertex -677.7204 -33.09789 465.8093
      vertex -609.8863 -577.6152 -19.35733
    endloop
  endfacet
  facet normal 0.69438 -0.5918913 -0.4092689
    outer loop
      vertex -614.1164 -292.8633 -438.3473
      vertex -609.8863 -577.6152 -19.35733
      vertex -831.3889 -614.3861 -341.9878
    endloop
  endfacet
  facet normal 0.2250119 -0.9733825 -0.04354382
    outer loop
      vertex -831.3889 -614.3861 -341.9878
      vertex -609.8863 -577.6152 -19.35733
      vertex -1149.53 -704.714 33.218
    endloop
  endfacet
  facet normal 0.2213919 -0.6332178 0.7416339
    outer loop
      vertex -1149.53 -704.714 33.218
      vertex -609.8863 -577.6152 -19.35733
      vertex -677.7204 -33.09789 465.8093
    endloop
  endfacet
  facet normal -0.3136751 -0.827743 -0.4652414
    outer loop
      vertex -831.3889 -614.3861 -341.9878
      vertex -1149.53 -704.714 33.218
      vertex -1363.708 -475.906 -229.4672
    endloop
  endfacet
  facet normal -0.2369738 -0.1284664 -0.9629849
    outer loop
      vertex -614.1164 -292.8633 -438.3473
      vertex -831.3889 -614.3861 -341.9878
      vertex -1363.708 -475.906 -229.4672
    endloop
  endfacet
  facet normal -0.3067356 -0.3536774 0.8836433
    outer loop
      vertex -677.7204 -33.09789 465.8093
      vertex -1181.859 331.0981 436.5788
      vertex -1149.53 -704.714 33.218
    endloop
  endfacet
  facet normal -0.8241589 -0.1420233 0.5482622
    outer loop
      vertex -1363.708 -475.906 -229.4672
      vertex -1149.53 -704.714 33.218
      vertex -1346.513 456.8958 38.01672
    endloop
  endfacet
  facet normal -0.929184 -0.1589467 0.333696
    outer loop
      vertex -1181.859 331.0981 436.5788
      vertex -1346.513 456.8958 38.01672
      vertex -1149.53 -704.714 33.218
    endloop
  endfacet
  facet normal -0.2426492 -0.1066502 -0.9642339
    outer loop
      vertex -614.1164 -292.8633 -438.3473
      vertex -1363.708 -475.906 -229.4672
      vertex -1033.045 405.7473 -410.1948
    endloop
  endfacet
  facet normal -0.7962676 0.1802674 -0.5774615
    outer loop
      vertex -1346.513 456.8958 38.01672
      vertex -1033.045 405.7473 -410.1948
      vertex -1363.708 -475.906 -229.4672
    endloop
  endfacet
  facet normal -0.2425047 0.9676906 -0.06903838
    outer loop
      vertex 232.4681 457.6313 -332.9771
      vertex 407.7177 521.6982 -50.55317
      vertex 1082.775 683.9717 -147.2231
    endloop
  endfacet
  facet normal -0.1167179 0.8196531 0.5608438
    outer loop
      vertex 407.7177 521.6982 -50.55317
      vertex 789.661 505.0776 53.22402
      vertex 1082.775 683.9717 -147.2231
    endloop
  endfacet
  facet normal 0.01515072 0.5996979 -0.800083
    outer loop
      vertex 844.768 306.4839 -434.674
      vertex 232.4681 457.6313 -332.9771
      vertex 1082.775 683.9717 -147.2231
    endloop
  endfacet
endsolid
